<svg width="133" height="116" viewBox="0 0 133 116" fill="none" xmlns="http://www.w3.org/2000/svg">
<g clip-path="url(#clip0_7_423)">
<path opacity="0.18" d="M73.6736 0.698201C71.9989 0.998659 70.3468 1.41405 68.7291 1.94142C58.0049 5.4397 37.6308 10.8597 29.6828 18.8406C20.4682 28.1157 23.2953 40.3205 14.0415 49.5407C6.3757 57.1687 -0.0196216 64.6359 -1.60775e-05 76.2092C0.0313528 96.6027 17.645 103.689 34.1136 108.827C53.625 114.906 74.3755 117.702 94.7221 114.926C103.349 113.749 112.057 111.486 119.096 106.368C129.624 98.7205 134.686 84.6803 132.498 71.9815C131.388 65.5379 129.447 59.714 128.918 53.0939C128.228 44.4659 129.683 35.6104 127.15 27.1745C122.738 12.4794 107.301 3.6435 92.197 0.968807C86.0879 -0.121462 79.7592 -0.407757 73.6736 0.698201Z" fill="#8CC5F9"/>
<path d="M122.142 15.6009V92.1551C122.142 93.4387 121.633 94.6696 120.725 95.5772C119.818 96.4848 118.587 96.9947 117.304 96.9947H15.6962C14.4129 96.9947 13.1822 96.4848 12.2748 95.5772C11.3673 94.6696 10.8575 93.4387 10.8575 92.1551V17.0324C10.8575 15.7489 11.3673 14.5179 12.2748 13.6103C13.1822 12.7027 14.4129 12.1929 15.6962 12.1929H118.735C119.639 12.1929 120.505 12.5519 121.144 13.1911C121.783 13.8302 122.142 14.6971 122.142 15.6009Z" fill="white"/>
<path opacity="0.33" d="M77.3399 28.802H28.7692V58.6589H77.3399V28.802Z" fill="#D7D9E1"/>
<path opacity="0.33" d="M77.3399 61.5217H28.7692V91.3787H77.3399V61.5217Z" fill="#D7D9E1"/>
<path d="M122.142 15.6757V15.8012H10.8575V15.6757C10.8575 14.3922 11.3673 13.1612 12.2748 12.2537C13.1822 11.3461 14.4129 10.8362 15.6962 10.8362H117.304C117.939 10.8357 118.569 10.9605 119.156 11.2035C119.743 11.4465 120.277 11.803 120.726 12.2525C121.176 12.702 121.532 13.2357 121.775 13.8231C122.018 14.4105 122.143 15.04 122.142 15.6757Z" fill="#8CC5F9"/>
<path d="M25.8715 15.801V96.983H15.6962C14.4129 96.983 13.1822 96.4731 12.2748 95.5655C11.3673 94.6579 10.8575 93.427 10.8575 92.1434V15.801H25.8715Z" fill="#D7D9E1"/>
<path d="M23.5541 36.2456H15.7158V37.0221H23.5541V36.2456Z" fill="white"/>
<path d="M23.558 33.9512H13.8964V34.9356H23.558V33.9512Z" fill="white"/>
<path d="M23.5541 45.4226H15.7158V46.1991H23.5541V45.4226Z" fill="white"/>
<path d="M23.558 43.1245H13.8964V44.1089H23.558V43.1245Z" fill="white"/>
<path d="M23.5541 54.5959H15.7158V55.3725H23.5541V54.5959Z" fill="white"/>
<path d="M23.558 52.3015H13.8964V53.2859H23.558V52.3015Z" fill="white"/>
<path d="M23.5541 63.7688H15.7158V64.5453H23.5541V63.7688Z" fill="white"/>
<path d="M23.558 61.4749H13.8964V62.4592H23.558V61.4749Z" fill="white"/>
<path d="M128.714 24.8487V41.0576C128.714 42.1826 128.282 43.2645 127.505 44.0788C126.729 44.893 125.67 45.3771 124.546 45.4305C124.477 45.4345 124.407 45.4345 124.338 45.4305H97.5375L95.2319 50.7877L92.8008 45.4305H55.8875C54.9392 45.4298 54.0167 45.1212 53.2587 44.5512C52.5007 43.9812 51.9481 43.1805 51.6841 42.2695C51.5746 41.875 51.5218 41.467 51.5272 41.0576V24.8487C51.5272 23.6903 51.986 22.579 52.8031 21.758C53.6203 20.937 54.7293 20.4732 55.8875 20.468H124.338C124.913 20.468 125.483 20.5814 126.014 20.8016C126.545 21.0218 127.027 21.3445 127.434 21.7513C127.84 22.1582 128.163 22.6411 128.382 23.1726C128.602 23.7041 128.715 24.2736 128.714 24.8487Z" fill="#8CC5F9"/>
<path opacity="0.33" d="M128.714 26.488V41.0577C128.714 42.1826 128.282 43.2645 127.506 44.0788C126.729 44.893 125.67 45.3771 124.546 45.4305C124.477 45.4345 124.407 45.4345 124.338 45.4305H97.5375L95.2319 50.7877L92.8008 45.4305H55.8875C54.9392 45.4298 54.0167 45.1212 53.2587 44.5512C52.5007 43.9812 51.9481 43.1805 51.6841 42.2695C51.5746 41.875 51.5218 41.467 51.5272 41.0577V26.488H128.714Z" fill="white"/>
<path d="M16.0373 14.4165C16.648 14.4165 17.1431 13.9213 17.1431 13.3105C17.1431 12.6997 16.648 12.2046 16.0373 12.2046C15.4266 12.2046 14.9316 12.6997 14.9316 13.3105C14.9316 13.9213 15.4266 14.4165 16.0373 14.4165Z" fill="white"/>
<path d="M19.829 14.4165C20.4397 14.4165 20.9348 13.9213 20.9348 13.3105C20.9348 12.6997 20.4397 12.2046 19.829 12.2046C19.2183 12.2046 18.7233 12.6997 18.7233 13.3105C18.7233 13.9213 19.2183 14.4165 19.829 14.4165Z" fill="white"/>
<path d="M23.6208 14.4165C24.2315 14.4165 24.7265 13.9213 24.7265 13.3105C24.7265 12.6997 24.2315 12.2046 23.6208 12.2046C23.0101 12.2046 22.515 12.6997 22.515 13.3105C22.515 13.9213 23.0101 14.4165 23.6208 14.4165Z" fill="white"/>
<path d="M104.121 92.1944C104.121 96.3986 102.451 100.431 99.479 103.403C96.5067 106.376 92.4754 108.046 88.2719 108.046C84.0685 108.046 80.0372 106.376 77.0649 103.403C74.0926 100.431 72.4228 96.3986 72.4228 92.1944C72.4228 91.7865 72.4385 91.3826 72.4699 90.9826C72.7853 86.897 74.6703 83.0923 77.7295 80.3666C80.7886 77.6409 84.7842 76.2059 88.8782 76.3627C92.9722 76.5194 96.8464 78.2557 99.6883 81.2074C102.53 84.159 104.119 88.0967 104.121 92.1944Z" fill="#8CC5F9"/>
<path opacity="0.14" d="M81.61 99.3951C81.0845 101.685 81.7276 104.129 81.2571 106.411C77.5958 104.6 74.7721 101.449 73.3717 97.6107C73.2963 96.8268 73.316 96.0367 73.4305 95.2576C73.5364 94.4144 73.6933 93.5398 73.4541 92.7241C73.2266 92.0958 72.8938 91.5109 72.4699 90.9945C72.6458 88.6768 73.3301 86.4262 74.474 84.4029C75.618 82.3796 77.1935 80.6332 79.0887 79.2878C79.1082 79.3941 79.1082 79.5031 79.0887 79.6094L78.426 82.6292C78.5594 83.5237 78.5594 84.433 78.426 85.3275C78.3535 85.7737 78.1843 86.1986 77.9303 86.5726C77.6763 86.9465 77.3436 87.2604 76.9556 87.4923C76.663 87.6132 76.3788 87.7534 76.1047 87.912C75.8415 88.1302 75.6219 88.3963 75.4578 88.6963C75.02 89.3076 74.6934 89.9913 74.4932 90.7161C74.3963 91.0787 74.3914 91.4599 74.479 91.8249C74.5667 92.1899 74.7441 92.5273 74.9951 92.8064L79.4142 91.9475C79.8768 91.8573 80.4376 91.7946 80.7552 92.1436C81.1473 92.5593 80.8963 93.2221 80.9787 93.7829C81.0845 94.4967 81.7198 95.0105 82.0138 95.6733C82.5236 96.8224 81.9001 98.144 81.61 99.3951Z" fill="#020202"/>
<path opacity="0.4" d="M75.744 84.0529C75.9489 84.4966 76.2752 84.8732 76.6851 85.1392C78.5384 86.5299 80.7763 87.3134 83.0922 87.3825C82.3432 87.5668 81.5512 87.7747 81.0179 88.3355C80.4846 88.8963 80.3709 89.9042 80.9905 90.3788C81.2085 90.5245 81.4564 90.6196 81.7159 90.6572C82.8961 90.8891 84.1175 90.7901 85.2449 90.3709C85.9271 90.116 86.5976 89.7395 87.327 89.7474C87.911 89.7957 88.4799 89.9583 89.0013 90.2258C89.7855 90.5474 90.605 90.8376 91.4206 90.6729C92.2362 90.5082 92.9891 89.7238 92.8048 88.9081C92.7616 88.7159 92.6793 88.5159 92.7734 88.3394C92.8526 88.2336 92.9641 88.1565 93.091 88.1198L100.592 84.7823C101.067 84.5666 101.612 84.2646 101.663 83.747C101.714 83.2293 101.188 82.7861 100.702 82.5351C98.1179 81.186 95.1025 81.0134 92.1892 80.8723L87.0172 80.6173C84.5155 80.4958 81.9904 80.3742 79.4926 80.6683C78.626 80.7703 77.0968 80.7821 76.4341 81.4292C75.8577 81.9782 75.4774 83.343 75.744 84.0529Z" fill="#020202"/>
<path opacity="0.14" d="M104.121 92.1946C104.124 94.592 103.581 96.9588 102.535 99.1159C101.489 101.273 99.9666 103.164 98.0825 104.646C97.8648 104.502 97.6781 104.315 97.5336 104.097C97.0591 103.38 97.216 102.246 97.9806 101.842C97.7139 101.983 96.667 101.638 96.3533 101.591L94.7221 101.336C93.9379 101.215 92.5812 101.266 92.1225 100.481C92.0695 100.372 92.0079 100.267 91.9382 100.168C91.8409 100.07 91.7266 99.9921 91.6009 99.9362C91.1108 99.697 90.5344 99.4264 90.4246 98.893C90.3423 98.5009 90.5383 98.0538 90.3384 97.7165C90.2756 97.6067 90.1776 97.5204 90.1148 97.4145C90.0458 97.2537 90.0196 97.0778 90.0389 96.9039C90.0581 96.73 90.1221 96.5641 90.2246 96.4223C90.9108 95.2183 92.3381 94.6379 93.7027 94.4065C95.0672 94.1751 96.4827 94.2065 97.8159 93.8221C98.655 93.579 99.451 93.1711 100.318 93.0377C100.796 92.9711 101.392 92.924 101.568 92.473C101.666 92.2181 101.568 91.9239 101.67 91.6651C101.71 91.5553 101.784 91.4612 101.823 91.3514C101.854 91.2591 101.863 91.1613 101.851 91.065C101.838 90.9686 101.805 90.8763 101.752 90.7947C101.699 90.7131 101.629 90.6443 101.546 90.5934C101.464 90.5425 101.371 90.5107 101.274 90.5003C101.384 90.2023 101.478 89.8218 101.243 89.6101C101.161 89.5501 101.066 89.5106 100.966 89.4949C100.865 89.4792 100.763 89.4877 100.667 89.5199C100.098 89.665 99.6863 90.1434 99.2079 90.4807C97.6394 91.6063 95.4593 91.2063 94.134 89.8846C93.9193 89.6961 93.7663 89.4474 93.6948 89.1708C93.675 88.9351 93.7288 88.6991 93.8489 88.4953C93.969 88.2916 94.1495 88.1302 94.3653 88.0335C94.7983 87.8466 95.2662 87.7544 95.7377 87.7629L95.2084 84.3117C92.5734 85.0176 91.5029 82.5076 91.1265 80.4212C90.7501 78.3348 92.2322 77.5897 94.1418 77.4524C97.0894 78.6284 99.6162 80.6622 101.395 83.2904C103.174 85.9187 104.124 89.0205 104.121 92.1946Z" fill="#020202"/>
<path d="M94.7376 56.6496L94.3701 56.6787C94.1413 56.6968 93.9704 56.897 93.9885 57.1258L94.1807 59.5576C94.1988 59.7865 94.399 59.9574 94.6278 59.9393L94.9953 59.9102C95.2241 59.8922 95.395 59.6919 95.3769 59.4631L95.1847 57.0313C95.1666 56.8024 94.9664 56.6315 94.7376 56.6496Z" fill="#8CC5F9"/>
<path d="M92.1617 55.6783L92.3303 56.6156C92.3852 56.9176 92.6048 57.1176 92.84 57.0784C93.7497 56.9215 95.9769 56.6117 97.5806 57.0195C98.4521 57.2414 99.3043 57.5325 100.129 57.8902C100.455 58.0353 100.78 57.6706 100.725 57.2235L100.149 52.2349C100.094 51.7957 99.7098 51.576 99.4314 51.8427C98.2825 52.8859 95.6201 54.9606 92.6361 54.9488C92.3068 54.937 92.095 55.2979 92.1617 55.6783Z" fill="#8CC5F9"/>
<path d="M100.377 57.9173C101.206 57.8517 101.767 56.393 101.63 54.6591C101.493 52.9253 100.71 51.5729 99.881 51.6384C99.052 51.7039 98.491 53.1627 98.6281 54.8965C98.7651 56.6304 99.5483 57.9828 100.377 57.9173Z" fill="#8CC5F9"/>
<path d="M100.377 57.9173C101.206 57.8517 101.767 56.393 101.63 54.6591C101.493 52.9253 100.71 51.5729 99.881 51.6384C99.052 51.7039 98.491 53.1627 98.6281 54.8965C98.7651 56.6304 99.5483 57.9828 100.377 57.9173Z" fill="url(#paint0_linear_7_423)"/>
<path d="M82.4295 61.5022C80.5787 61.765 76.1557 72.1617 77.4732 74.5423C78.7907 76.9229 86.0644 79.6995 86.0644 79.6995L85.6723 75.6012C85.6723 75.6012 80.6964 73.4834 81.0924 72.1617C81.4884 70.8401 84.3508 65.9064 84.3508 65.9064L82.4295 61.5022Z" fill="#8CC5F9"/>
<path d="M94.2673 61.22C94.2673 60.9611 95.9887 61.6867 96.0671 61.7298C97.0554 62.2757 97.9925 62.9097 98.8668 63.624C99.651 64.2515 100.471 64.8633 101.219 65.5575C101.898 66.2007 102.815 66.9929 102.651 68.0361C102.521 68.8205 101.67 69.3382 100.87 69.3421C100.069 69.2806 99.2966 69.0102 98.6315 68.5577C97.2356 67.7537 95.9142 66.887 94.5575 66.0046L94.2673 61.22Z" fill="#8CC5F9"/>
<path d="M83.5705 61.2003H93.7341C94.0897 61.1929 94.4432 61.2572 94.7736 61.3893C95.1039 61.5214 95.4042 61.7187 95.6567 61.9694C95.9091 62.2201 96.1086 62.519 96.2431 62.8484C96.3776 63.1778 96.4444 63.531 96.4396 63.8867C96.4396 63.8867 94.5026 71.801 94.4791 74.4561C94.4791 75.9111 94.9378 80.2565 94.9378 80.2565H82.3903C82.3903 80.2565 82.9706 75.715 82.9588 74.1894C82.9353 71.601 80.8846 63.8867 80.8846 63.8867C80.8798 63.5326 80.9461 63.1812 81.0794 62.8531C81.2127 62.525 81.4103 62.227 81.6607 61.9766C81.9111 61.7261 82.2091 61.5284 82.5371 61.3951C82.8651 61.2618 83.2165 61.1955 83.5705 61.2003Z" fill="#8CC5F9"/>
<path d="M95.8985 56.7097C95.7258 56.4677 95.4934 56.2745 95.2241 56.1488C94.9681 56.0734 94.6958 56.0734 94.4399 56.1488C94.0927 56.2301 93.7677 56.3868 93.4878 56.6077C93.208 56.8287 92.9801 57.1085 92.8204 57.4273C92.7529 57.5584 92.7166 57.7034 92.7146 57.8509C92.7274 57.9977 92.7659 58.141 92.8283 58.2745C93.0714 58.8902 93.3929 59.5804 94.0321 59.7608C94.3703 59.8035 94.7106 59.8284 95.0515 59.8353C95.2751 59.8706 95.4868 59.9569 95.7103 59.9961C96.2749 60.0981 97.4081 59.7138 97.4513 59.0039C97.4709 58.6549 97.0239 58.1882 96.8356 57.9176C96.5298 57.4979 96.2279 57.0979 95.8985 56.7097Z" fill="#F5FAFE"/>
<path d="M90.2168 62.6867C90.1748 62.9841 90.0206 63.2543 89.7858 63.4417C89.5511 63.6291 89.2535 63.7196 88.9542 63.6946C87.7073 63.6357 87.6171 62.6867 87.6171 62.6867V57.7373H90.2168V62.6867Z" fill="#F5FAFE"/>
<path d="M87.6014 60.1845C87.6014 60.1845 89.2287 62.722 90.2011 61.5023V59.5178L87.6014 60.1845Z" fill="url(#paint1_linear_7_423)"/>
<path d="M86.5231 58.9218C87.174 60.9415 90.409 61.0003 91.4951 59.3963C92.0758 58.421 92.2584 57.2594 92.0048 56.153C91.8324 55.064 91.4994 54.0067 91.0167 53.0155C90.6834 52.3919 90.3462 51.8389 89.5894 51.7448C88.7258 51.6888 87.8643 51.8821 87.1074 52.3017C86.3903 52.6884 85.829 53.3113 85.5188 54.0647C85.2086 54.8182 85.1686 55.6558 85.4056 56.4353C85.5356 56.8255 85.6996 57.2034 85.8958 57.5648C86.1396 58.0003 86.3493 58.4539 86.5231 58.9218Z" fill="#F5FAFE"/>
<path d="M97.1689 71.1853H80.1435V81.3389H97.1689V71.1853Z" fill="#8CC5F9"/>
<g opacity="0.1">
<path opacity="0.1" d="M97.1689 71.1853H80.1435V81.3389H97.1689V71.1853Z" fill="#020202"/>
</g>
<path d="M87.5151 86.7549C87.16 87.0348 86.763 87.2572 86.3388 87.4137C85.4252 87.8059 83.6215 88.5119 83.892 89.2962C84.2567 90.3551 85.5271 90.2767 86.3702 90.0257C87.6866 89.5743 88.9398 88.9562 90.0992 88.1863L87.5151 86.7549Z" fill="#473F47"/>
<path d="M89.6992 83.9941C92.7891 81.739 94.4045 80.0723 97.8747 77.9623C98.7021 77.4603 99.2667 77.3113 100.698 77.8721C101.917 78.3506 101.788 80.4488 101.121 81.3233C99.1256 83.947 91.4323 87.5708 89.8757 88.1199C89.2091 88.3552 86.8368 86.359 87.7975 85.406C88.4 84.8944 89.0353 84.4228 89.6992 83.9941Z" fill="#473F47"/>
<path d="M88.2719 88.3394C88.7515 88.9567 89.2986 89.5184 89.9031 90.014C90.9501 90.8258 91.6755 91.0925 92.5263 90.6964C93.7576 90.1238 92.6244 88.9119 91.6676 87.9511C90.9376 87.1884 90.1203 86.5144 89.2326 85.9431L88.2719 88.3394Z" fill="#473F47"/>
<path d="M88.4288 85.3745L89.7502 86.4687C90.0228 86.6894 90.2561 86.9546 90.4403 87.2531C90.8677 88.0374 89.3855 89.6885 88.4209 88.7277C87.4563 87.7668 86.5937 86.7393 86.5937 86.7393L88.4288 85.3745Z" fill="#F5FAFE"/>
<path d="M84.4998 87.096C80.9081 85.2881 78.7045 84.637 76.3949 81.3858C75.8068 80.5544 75.5715 79.1857 75.7989 78.5072C76.0812 77.6758 77.2968 77.1738 78.7319 77.515C79.9318 77.8052 88.0014 84.1272 89.264 85.3194C89.8051 85.8332 88.1504 88.402 86.7937 87.9588C86.0047 87.7409 85.2369 87.4521 84.4998 87.096Z" fill="#473F47"/>
<path d="M91.8872 52.8231C91.748 53.1587 91.5426 53.4628 91.2834 53.7173C90.7562 54.2268 90.0805 54.5551 89.3542 54.6546C88.2955 54.8232 87.2211 54.6546 86.1546 54.5487C86.1306 54.7208 86.0587 54.8828 85.9471 55.0159C85.8354 55.1491 85.6886 55.2481 85.5233 55.3017C85.6844 56.0471 85.8993 56.7797 86.1663 57.494C86.429 58.1921 86.8055 58.8431 87.0878 59.5255C86.2095 58.9176 85.5194 57.8823 84.892 57.043C84.5517 56.6442 84.2789 56.1924 84.0842 55.7057C83.987 55.4618 83.9494 55.1983 83.9747 54.937C83.9999 54.6757 84.0872 54.4243 84.2293 54.2036C84.3759 54.0557 84.4954 53.8831 84.5822 53.6938C84.6116 53.529 84.6116 53.3604 84.5822 53.1957C84.5687 52.8044 84.6435 52.415 84.8009 52.0565C84.9584 51.6981 85.1946 51.3797 85.4919 51.125C86.0931 50.6214 86.7991 50.2583 87.5583 50.0621C88.2081 49.8336 88.9019 49.7584 89.5855 49.8425C90.5737 50.0111 91.7578 51.1014 91.9656 52.0858C92.0102 52.334 91.983 52.5898 91.8872 52.8231Z" fill="#473F47"/>
<path d="M85.8252 57.5959C85.711 57.6162 85.602 57.6588 85.5044 57.7214C85.4069 57.784 85.3226 57.8653 85.2566 57.9607C85.2202 58.0352 85.199 58.1163 85.1943 58.1991C85.1896 58.2819 85.2014 58.3649 85.2292 58.443C85.2849 58.6005 85.3686 58.7467 85.4762 58.8744C85.5306 58.9524 85.5983 59.0201 85.6762 59.0745C85.8079 59.1482 85.9566 59.186 86.1075 59.1843C86.2251 59.1843 86.3428 59.1843 86.4604 59.1843C86.5205 59.1807 86.5793 59.1647 86.6329 59.1372C86.6881 59.0957 86.7291 59.0381 86.7506 58.9725C86.8311 58.7266 86.8311 58.4615 86.7506 58.2156C86.6959 57.9838 86.584 57.7694 86.4251 57.592C86.2722 57.4469 86.033 57.5293 85.8252 57.5959Z" fill="#F5FAFE"/>
<path d="M98.9413 67.4044C99.168 67.9429 99.5139 68.4229 99.9529 68.8084C100.264 69.0403 100.636 69.1749 101.023 69.1953C101.41 69.2156 101.794 69.1207 102.128 68.9226C102.461 68.7245 102.728 68.4321 102.895 68.0823C103.062 67.7325 103.122 67.341 103.066 66.9573C102.937 66.3925 102.684 65.8634 102.325 65.4082C100.788 63.1335 99.2079 60.885 97.5846 58.6626C97.1532 58.9097 95.624 59.4705 95.5181 59.9607C95.4123 60.451 96.3337 61.9216 96.5612 62.4236C96.9533 63.2708 97.3454 64.1179 97.7375 64.9572C98.1296 65.7964 98.6903 66.5729 98.9413 67.4044Z" fill="#8CC5F9"/>
<path d="M94.5561 58.7954L94.0576 58.9613C93.8377 59.0344 93.7188 59.272 93.7919 59.4919L93.9578 59.9906C94.0309 60.2105 94.2684 60.3295 94.4883 60.2563L94.9868 60.0904C95.2067 60.0173 95.3257 59.7797 95.2525 59.5598L95.0867 59.0611C95.0135 58.8412 94.776 58.7223 94.5561 58.7954Z" fill="#8CC5F9"/>
<path d="M54.2171 22.9897L56.06 24.8291" stroke="white" stroke-width="2" stroke-miterlimit="10" stroke-linecap="round"/>
<path d="M56.1699 22.9897L54.3269 24.8291" stroke="white" stroke-width="2" stroke-miterlimit="10" stroke-linecap="round"/>
<path d="M100.682 32.0061H59.7733C59.2363 32.0061 58.8009 32.4416 58.8009 32.9787C58.8009 33.5159 59.2363 33.9513 59.7733 33.9513H100.682C101.219 33.9513 101.655 33.5159 101.655 32.9787C101.655 32.4416 101.219 32.0061 100.682 32.0061Z" fill="white"/>
<path d="M100.682 36.8574H59.7733C59.2363 36.8574 58.8009 37.2929 58.8009 37.83C58.8009 38.3672 59.2363 38.8026 59.7733 38.8026H100.682C101.219 38.8026 101.655 38.3672 101.655 37.83C101.655 37.2929 101.219 36.8574 100.682 36.8574Z" fill="white"/>
</g>
<defs>
<linearGradient id="paint0_linear_7_423" x1="96.5148" y1="53.2352" x2="118.506" y2="62.5977" gradientUnits="userSpaceOnUse">
<stop offset="0.01"/>
<stop offset="0.08" stop-opacity="0.69"/>
<stop offset="0.21" stop-opacity="0.32"/>
<stop offset="1" stop-opacity="0"/>
</linearGradient>
<linearGradient id="paint1_linear_7_423" x1="768.219" y1="435.116" x2="760.439" y2="508.978" gradientUnits="userSpaceOnUse">
<stop offset="0.01"/>
<stop offset="0.08" stop-opacity="0.69"/>
<stop offset="0.21" stop-opacity="0.32"/>
<stop offset="1" stop-opacity="0"/>
</linearGradient>
<clipPath id="clip0_7_423">
<rect width="133" height="116" fill="white"/>
</clipPath>
</defs>
</svg>
